<?xml version="1.0" encoding="utf-8"?>
<!-- Generator: Adobe Illustrator 23.0.2, SVG Export Plug-In . SVG Version: 6.00 Build 0)  -->
<svg version="1.1" id="Layer_1" xmlns="http://www.w3.org/2000/svg" xmlns:xlink="http://www.w3.org/1999/xlink" x="0px" y="0px"
	 viewBox="0 0 84.19 79" style="enable-background:new 0 0 84.19 79;" xml:space="preserve">
<style type="text/css">
	.st0{fill:#6F56D8;}
	.st1{fill:#FFC627;}
</style>
<g>
	<path class="st0" d="M44.69,79H0V0h44.69c21.82,0,39.5,17.68,39.5,39.5v0C84.19,61.32,66.5,79,44.69,79z"/>
	<path class="st1" d="M66.69,46.86c-0.83,0-1.5-0.67-1.5-1.5c0-3.31-2.69-6-6-6s-6,2.69-6,6c0,0.83-0.67,1.5-1.5,1.5
		s-1.5-0.67-1.5-1.5c0-4.96,4.04-9,9-9s9,4.04,9,9C68.19,46.19,67.52,46.86,66.69,46.86z"/>
	<path class="st1" d="M19.59,34.86c-0.38,0-0.77-0.15-1.06-0.44c-0.59-0.59-0.59-1.54,0-2.12l20-20c0.59-0.59,1.54-0.59,2.12,0
		c0.59,0.59,0.59,1.54,0,2.12l-20,20C20.36,34.72,19.98,34.86,19.59,34.86z"/>
	<path class="st1" d="M39.59,34.86c-0.38,0-0.77-0.15-1.06-0.44l-20-20c-0.59-0.59-0.59-1.54,0-2.12c0.59-0.59,1.54-0.59,2.12,0
		l20,20c0.59,0.59,0.59,1.54,0,2.12C40.36,34.72,39.98,34.86,39.59,34.86z"/>
</g>
</svg>
