<?xml version="1.0" encoding="utf-8"?>
<!-- Generator: Adobe Illustrator 23.0.2, SVG Export Plug-In . SVG Version: 6.00 Build 0)  -->
<svg version="1.1" id="Layer_1" xmlns="http://www.w3.org/2000/svg" xmlns:xlink="http://www.w3.org/1999/xlink" x="0px" y="0px"
	 viewBox="0 0 126.2 28.7" style="enable-background:new 0 0 126.2 28.7;" xml:space="preserve">
<style type="text/css">
	.st0{fill:#FFFFFF;}
</style>
<path class="st0" d="M3.1,17.4h15l-3,3c-1.2,1.2-1.3,3.3,0,4.5c1.2,1.2,3.3,1.3,4.5,0l8.1-8.1c0.6-0.6,1-1.6,0.8-2.4
	c0-0.3,0-0.6-0.1-0.8c0-0.1-0.1-0.2-0.1-0.2c0-0.1-0.1-0.2-0.1-0.4c-0.1-0.1-0.1-0.2-0.1-0.3C28,12.6,28,12.5,28,12.4
	c-0.1-0.1-0.2-0.4-0.4-0.5l-8.1-8.1c-1.2-1.2-3.3-1.3-4.5,0c-1.2,1.2-1.3,3.3,0,4.5l2.7,2.7L3.2,11.1c-1.7,0-3.1,1.4-3.2,3.2
	C0,15.9,1.4,17.4,3.1,17.4z"/>
<path class="st0" d="M50,25.6v-15l3,3c1.2,1.2,3.3,1.3,4.5,0c1.2-1.2,1.3-3.3,0-4.5L49.4,1c-0.6-0.6-1.6-1-2.4-0.8
	c-0.3,0-0.6,0-0.8,0.1c-0.1,0-0.2,0.1-0.2,0.1c-0.1,0-0.2,0.1-0.4,0.1c0-0.1-0.2-0.1-0.2,0c-0.1,0-0.2,0-0.3,0.1
	c-0.2,0.2-0.4,0.2-0.5,0.4l-8.1,8c-1.2,1.2-1.3,3.3,0,4.5c1.2,1.2,3.3,1.3,4.5,0l2.7-2.7v14.7c0,1.7,1.4,3.1,3.2,3.2
	C48.5,28.7,50,27.3,50,25.6z"/>
<path class="st0" d="M90.9,11.3h-15l3-3c1.2-1.2,1.3-3.3,0-4.5c-1.2-1.2-3.3-1.3-4.5,0l-8.1,8.1c-0.6,0.6-1,1.6-0.8,2.4
	c0,0.3,0,0.6,0.1,0.8c0,0.1,0.1,0.2,0.1,0.2c0,0.1,0.1,0.2,0.1,0.4c0.1,0.1,0.1,0.2,0.1,0.3c0.1,0.1,0.1,0.2,0.1,0.3
	c0.1,0.1,0.2,0.4,0.4,0.5l8.1,8.1c1.2,1.2,3.3,1.3,4.5,0c1.2-1.2,1.3-3.3,0-4.5l-2.7-2.7l14.6,0.1c1.7,0,3.1-1.4,3.2-3.2
	C94,12.7,92.6,11.3,90.9,11.3z"/>
<path class="st0" d="M111.6,3.2v15l-3-3c-1.2-1.2-3.3-1.3-4.5,0c-1.2,1.2-1.3,3.3,0,4.5l8.1,8.1c0.6,0.6,1.6,1,2.4,0.8
	c0.3,0,0.6,0,0.8-0.1c0.1,0,0.2-0.1,0.2-0.1c0.1,0,0.2-0.1,0.4-0.1c0.1-0.1,0.2-0.1,0.3-0.1c0.1-0.1,0.2-0.1,0.3-0.1
	c0.1-0.1,0.4-0.2,0.5-0.4l8.1-8.1c1.2-1.2,1.3-3.3,0-4.5c-1.2-1.2-3.3-1.3-4.5,0l-2.7,2.7l0.1-14.6c0-1.7-1.4-3.1-3.2-3.2
	C113,0.1,111.6,1.5,111.6,3.2z"/>
</svg>
