<?xml version="1.0" encoding="utf-8"?>
<!-- Generator: Adobe Illustrator 23.0.2, SVG Export Plug-In . SVG Version: 6.00 Build 0)  -->
<svg version="1.1" id="Layer_1" xmlns="http://www.w3.org/2000/svg" xmlns:xlink="http://www.w3.org/1999/xlink" x="0px" y="0px"
	 viewBox="0 0 623.21 64.32" style="enable-background:new 0 0 623.21 64.32;" xml:space="preserve">
<style type="text/css">
	.st0{fill:#4BC671;}
	.st1{fill:#6F56D8;}
</style>
<g>
	<g>
		<path class="st0" d="M42.63,45.02c0,10.82-7.64,19.3-21.56,19.3C7.55,64.32,0,56.1,0,45.94c0-3.44,0.84-6.8,2.52-9.82l12,3.44
			c-0.67,1.76-1.09,3.94-1.09,6.13c0,4.78,2.18,8.47,7.64,8.47c5.12,0,7.22-3.86,7.22-9.9c0-6.63-3.02-10.32-8.47-10.32h-3.02
			l1.59-9.9h0.76c4.28,0,6.88-2.1,6.88-7.64c0-3.94-0.92-7.55-2.94-11.75h12.67c2.27,3.27,4.11,7.3,4.11,11.75
			c0,6.54-3.69,10.74-11.16,12.67C36.92,30.34,42.63,35.79,42.63,45.02z"/>
		<path class="st0" d="M71.07,3.23c13.68,0,22.32,7.97,22.32,27.1c0,15.02-2.52,25.01-5.54,32.47H74.68
			c2.85-8.98,4.62-18.54,4.62-32.14c0-12.25-2.43-17.37-8.22-17.37c-5.96,0-8.31,4.62-8.31,17.37c0,13.59,1.85,23.07,4.78,32.14
			H54.38c-2.94-7.47-5.71-17.45-5.71-32.47C48.67,11.79,56.64,3.23,71.07,3.23z"/>
		<path class="st0" d="M145.08,42.08c0,13.26-8.14,22.24-22.66,22.24c-14.52,0-22.74-8.39-22.74-22.4c0-11.5,6.04-19.72,17.12-21.73
			c0.25-0.75,0.33-1.59,0.33-2.6c0-5.45-6.38-4.61-6.38-12.92h13.17c0.17,3.78,6.29,4.95,6.29,11.66c0,1.43-0.5,2.77-1.17,4.03
			C139.38,22.7,145.08,30.84,145.08,42.08z M130.74,41.83c0-8.22-2.18-12.75-8.31-12.75c-6.04,0-8.47,4.53-8.47,12.59
			c0,8.14,2.43,12.59,8.47,12.59C128.39,54.25,130.74,49.55,130.74,41.83z"/>
		<path class="st0" d="M192.33,21.11v24.33c0,10.66-7.22,18.88-20.98,18.88c-13.09,0-20.81-8.22-20.81-18.63
			c0-3.69,1.01-7.13,2.77-10.32l12,3.61c-0.76,1.85-1.09,4.2-1.09,6.46c0,5.03,2.18,8.73,7.13,8.73s7.13-3.1,7.13-8.64V20.69
			c0-4.78-2.26-7.38-6.46-7.38c-4.28,0-6.38,2.69-6.38,6.13c0,2.1,0.42,3.78,0.84,5.03l-12.75,2.27c-1.09-2.35-1.85-4.95-1.85-7.55
			c0-9.48,8.06-15.94,20.14-15.94C184.11,3.23,192.33,10.11,192.33,21.11z"/>
		<path class="st0" d="M198.79,37.55c0-16.36,4.62-27.19,25.93-30.37c8.81-1.34,14.26-2.43,17.87-4.03l4.45,8.81
			c-3.44,2.43-9.82,4.53-18.88,5.29c-11.16,1.01-15.19,3.44-17.03,7.22c2.1-1.85,4.62-2.77,7.97-2.77c5.62,0,9.82,3.19,11.24,9.82
			c1.51-6.63,6.54-9.82,13.84-9.82c10.24,0,17.62,5.87,17.62,19.8c0,8.98-2.43,15.27-5.29,21.31H243.6
			c2.52-6.88,4.45-12.75,4.45-20.56c0-7.72-2.43-10.49-6.13-10.49c-2.85,0-5.12,1.68-5.12,6.8v12.92h-12.92V38.56
			c0-5.12-2.35-6.8-5.12-6.8c-4.11,0-6.21,3.1-6.21,10.4c0,7.89,1.85,13.76,4.45,20.64h-12.92
			C201.23,56.77,198.79,49.21,198.79,37.55z"/>
		<path class="st0" d="M332.8,41.24c0,13.76-7.55,23.07-22.24,23.07c-14.43,0-21.48-8.39-21.48-21.82V4.66h13.76v18.96
			c2.6-2.18,6.71-3.86,11.41-3.86C325.5,19.76,332.8,28.49,332.8,41.24z M318.54,41.24c0-7.97-2.43-11.5-7.55-11.5
			c-3.1,0-5.87,1.17-8.14,3.19v9.57c0,6.8,1.85,11.75,7.8,11.75C315.68,54.25,318.54,50.39,318.54,41.24z"/>
		<path class="st0" d="M339.1,30c0-18.88,7.13-26.77,19.55-26.77c6.88,0,11.83,3.27,13.76,10.4c2.01-7.13,6.88-10.4,14.52-10.4
			c11.5,0,18.88,7.97,18.88,26.77c0,15.86-3.27,25.34-6.54,32.81h-13.43c3.61-9.06,5.96-18.04,5.96-32.14
			c0-13.43-2.43-17.37-6.8-17.37c-3.52,0-5.71,2.01-5.71,7.8v24.58H365.7V21.11c0-5.96-2.35-7.8-5.37-7.8
			c-5.29,0-7.13,4.62-7.13,17.37c0,14.1,2.26,23.07,6.04,32.14h-13.43C342.54,55.34,339.1,45.86,339.1,30z"/>
		<path class="st0" d="M453.64,45.02c0,10.82-7.64,19.3-21.56,19.3c-13.51,0-21.06-8.22-21.06-18.38c0-3.44,0.84-6.8,2.52-9.82
			l12,3.44c-0.67,1.76-1.09,3.94-1.09,6.13c0,4.78,2.18,8.47,7.64,8.47c5.12,0,7.22-3.86,7.22-9.9c0-6.63-3.02-10.32-8.47-10.32
			h-3.02l1.59-9.9h0.76c4.28,0,6.88-2.1,6.88-7.64c0-3.94-0.92-7.55-2.94-11.75h12.67c2.27,3.27,4.11,7.3,4.11,11.75
			c0,6.54-3.69,10.74-11.16,12.67C447.93,30.34,453.64,35.79,453.64,45.02z"/>
		<path class="st0" d="M500.63,21.11v24.33c0,10.66-7.22,18.88-20.98,18.88c-13.09,0-20.81-8.22-20.81-18.63
			c0-3.69,1.01-7.13,2.77-10.32l12,3.61c-0.76,1.85-1.09,4.2-1.09,6.46c0,5.03,2.18,8.73,7.13,8.73s7.13-3.1,7.13-8.64V20.69
			c0-4.78-2.26-7.38-6.46-7.38c-4.28,0-6.38,2.69-6.38,6.13c0,2.1,0.42,3.78,0.84,5.03l-12.75,2.27c-1.09-2.35-1.85-4.95-1.85-7.55
			c0-9.48,8.06-15.94,20.14-15.94C492.41,3.23,500.63,10.11,500.63,21.11z"/>
		<path class="st0" d="M507.09,37.55c0-16.36,4.62-27.19,25.93-30.37c8.81-1.34,14.26-2.43,17.87-4.03l4.45,8.81
			c-3.44,2.43-9.82,4.53-18.88,5.29c-11.16,1.01-15.19,3.44-17.03,7.22c2.1-1.85,4.62-2.77,7.97-2.77c5.62,0,9.82,3.19,11.24,9.82
			c1.51-6.63,6.54-9.82,13.84-9.82c10.24,0,17.62,5.87,17.62,19.8c0,8.98-2.43,15.27-5.29,21.31H551.9
			c2.52-6.88,4.45-12.75,4.45-20.56c0-7.72-2.43-10.49-6.13-10.49c-2.85,0-5.12,1.68-5.12,6.8v12.92h-12.92V38.56
			c0-5.12-2.35-6.8-5.12-6.8c-4.11,0-6.21,3.1-6.21,10.4c0,7.89,1.85,13.76,4.45,20.64h-12.92
			C509.53,56.77,507.09,49.21,507.09,37.55z"/>
		<path class="st0" d="M620.21,43.17c0,13.09-8.89,21.14-22.49,21.14c-13.84,0-22.15-8.31-22.15-20.81c0-4.95,1.43-9.31,3.69-13.26
			l11.83,4.11c-1.09,2.69-1.76,6.04-1.76,9.15c0,6.38,2.52,10.66,8.39,10.66c5.79,0,8.05-4.11,8.05-10.15
			c0-15.86-15.27-19.05-15.27-39.35h14.01C604.85,19.43,620.21,25.39,620.21,43.17z"/>
	</g>
	<g>
		<g>
			<path class="st1" d="M23.56,62.32C10.66,62.32,2,54.73,2,43.44c0-3.54,0.89-7.02,2.58-10.06l0.19-0.35l12.9,3.7l-0.19,0.51
				c-0.68,1.79-1.06,3.9-1.06,5.95c0,2.98,0.93,7.97,7.14,7.97c4.46,0,6.72-3.16,6.72-9.4c0-6.33-2.83-9.82-7.97-9.82h-3.61
				l1.75-10.9h1.18c4.35,0,6.38-2.27,6.38-7.14c0-3.81-0.89-7.37-2.89-11.53l-0.34-0.72h13.73l0.15,0.22
				c2.79,4.03,4.2,8.07,4.2,12.03c0,6.15-3.22,10.38-9.59,12.57c7.78,1.93,12.36,7.8,12.36,16.04
				C45.63,54.55,36.96,62.32,23.56,62.32z M5.26,34.22C3.78,37.02,3,40.2,3,43.44c0,10.69,8.26,17.88,20.56,17.88
				c12.8,0,21.06-7.38,21.06-18.8c0-8.5-4.92-14.13-13.5-15.45l-2.41-0.37l2.36-0.61c7.26-1.88,10.78-5.86,10.78-12.19
				c0-3.68-1.3-7.46-3.87-11.25H26.36c1.83,4,2.65,7.5,2.65,11.25c0,5.4-2.48,8.14-7.38,8.14H21.3l-1.43,8.9h2.43
				c5.7,0,8.97,3.94,8.97,10.82c0,8.6-4.2,10.4-7.72,10.4c-5.17,0-8.14-3.27-8.14-8.97c0-1.97,0.33-4.01,0.94-5.79L5.26,34.22z"/>
			<path class="st1" d="M90.69,60.81H76.5l0.21-0.65c3.22-10.13,4.59-19.69,4.59-31.98c0-11.98-2.24-16.87-7.72-16.87
				c-4.82,0-7.81,2.82-7.81,16.87c0,12.13,1.42,21.69,4.76,31.98l0.21,0.65h-14.2l-0.12-0.32c-2.46-6.27-5.74-16.47-5.74-32.65
				c0-18.32,7.71-27.6,22.9-27.6c14.93,0,22.82,9.54,22.82,27.6c0,12.88-1.77,23.26-5.57,32.66L90.69,60.81z M77.86,59.81h12.15
				c3.67-9.2,5.38-19.37,5.38-31.97c0-17.65-7.34-26.6-21.82-26.6c-14.53,0-21.9,8.95-21.9,26.6c0,15.75,3.13,25.76,5.55,31.97
				h12.15c-3.22-10.15-4.6-19.66-4.6-31.64c0-12.86,2.47-17.87,8.81-17.87c6.11,0,8.72,5.34,8.72,17.87
				C82.3,40.31,80.97,49.82,77.86,59.81z"/>
			<path class="st1" d="M124.93,62.32c-14.55,0-23.24-8.56-23.24-22.9c0-11.99,6.27-20.05,17.23-22.17
				c0.16-0.58,0.23-1.27,0.23-2.17c0-2.22-1.12-3.25-2.53-4.56c-1.8-1.67-3.85-3.56-3.85-8.36v-0.5h14.15l0.02,0.48
				c0.06,1.4,1.12,2.46,2.35,3.68c1.76,1.75,3.94,3.93,3.94,8.01c0,1.17-0.3,2.35-0.94,3.69c10.05,2.55,15.79,10.56,15.79,22.07
				C148.08,53.61,139.21,62.32,124.93,62.32z M113.77,2.66c0.13,4,1.85,5.59,3.52,7.13c1.47,1.35,2.85,2.63,2.85,5.29
				c0,1.16-0.11,2.01-0.36,2.76l-0.09,0.28l-0.29,0.05c-10.62,1.93-16.71,9.67-16.71,21.24c0,13.92,8.11,21.9,22.24,21.9
				c13.67,0,22.16-8.33,22.16-21.74c0-11.24-5.7-18.98-15.64-21.25l-0.64-0.15l0.31-0.58c0.76-1.43,1.12-2.63,1.12-3.79
				c0-3.67-1.94-5.6-3.65-7.3c-1.2-1.19-2.34-2.32-2.59-3.87H113.77z M124.93,52.25c-6.04,0-8.97-4.28-8.97-13.09
				s2.94-13.09,8.97-13.09c6.09,0,8.81,4.09,8.81,13.25C133.74,47.9,130.77,52.25,124.93,52.25z M124.93,27.08
				c-5.44,0-7.97,3.84-7.97,12.09c0,8.25,2.53,12.09,7.97,12.09c5.25,0,7.81-3.9,7.81-11.92C132.74,30.74,130.4,27.08,124.93,27.08z
				"/>
			<path class="st1" d="M173.85,62.32c-12.55,0-21.31-7.87-21.31-19.13c0-3.61,0.95-7.16,2.83-10.56l0.2-0.35l12.91,3.88l-0.21,0.51
				c-0.68,1.66-1.05,3.89-1.05,6.27c0,3.07,0.86,8.23,6.63,8.23c4.46,0,6.63-2.66,6.63-8.14V18.19c0-3.14-1.03-6.88-5.96-6.88
				c-3.68,0-5.88,2.1-5.88,5.63c0,1.64,0.27,3.23,0.81,4.88l0.18,0.55l-13.7,2.43l-0.16-0.35c-1.26-2.7-1.89-5.32-1.89-7.76
				c0-9.83,8.29-16.44,20.64-16.44c12.64,0,20.81,7.21,20.81,18.37v24.33C195.33,54.71,186.9,62.32,173.85,62.32z M156.06,33.47
				c-1.67,3.14-2.52,6.41-2.52,9.72c0,10.84,8.16,18.13,20.31,18.13c12.63,0,20.48-7.04,20.48-18.38V18.61
				c0-10.55-7.77-17.37-19.81-17.37c-11.75,0-19.64,6.21-19.64,15.44c0,2.2,0.55,4.55,1.64,6.99l11.81-2.1
				c-0.46-1.55-0.69-3.08-0.69-4.64c0-4.09,2.64-6.63,6.88-6.63c4.49,0,6.96,2.8,6.96,7.88v24.84c0,6.07-2.57,9.14-7.63,9.14
				c-4.85,0-7.63-3.36-7.63-9.23c0-2.28,0.33-4.43,0.93-6.14L156.06,33.47z"/>
			<path class="st1" d="M259.34,60.81h-13.95l0.25-0.67c2.5-6.84,4.42-12.69,4.42-20.39c0-6.72-1.84-9.99-5.63-9.99
				c-3.06,0-4.62,2.12-4.62,6.3v13.42h-13.92V36.06c0-4.12-1.6-6.3-4.62-6.3c-2.45,0-5.71,1.03-5.71,9.9c0,8.13,2,14.08,4.41,20.46
				l0.26,0.68h-13.96l-0.14-0.29c-2.48-5.26-5.33-12.91-5.33-25.47c0-16.16,4.48-27.6,26.35-30.87c8.21-1.25,14.04-2.36,17.75-3.99
				L245.33,0l4.85,9.62l-0.35,0.25c-3.91,2.76-10.7,4.67-19.13,5.38c-9.16,0.83-13.13,2.67-15.15,4.79
				c1.73-0.91,3.71-1.34,6.05-1.34c5.57,0,9.52,2.98,11.26,8.44c1.95-5.53,6.69-8.44,13.83-8.44c11.69,0,18.12,7.21,18.12,20.3
				c0,9.44-2.75,16.06-5.33,21.53L259.34,60.81z M246.81,59.81h11.89c2.6-5.54,5.1-11.74,5.1-20.81c0-12.45-6.08-19.3-17.12-19.3
				c-7.33,0-11.95,3.26-13.36,9.43l-0.5,2.2l-0.47-2.21c-1.31-6.08-5.13-9.42-10.75-9.42c-3.16,0-5.59,0.84-7.64,2.64l-1.88,1.65
				l1.1-2.25c2.18-4.46,7.07-6.56,17.44-7.49c7.88-0.66,14.5-2.46,18.28-4.95l-4.04-8c-3.81,1.58-9.58,2.66-17.56,3.88
				c-21.24,3.18-25.5,13.79-25.5,29.88c0,12.14,2.7,19.6,5.1,24.76h11.88c-2.33-6.23-4.22-12.14-4.22-20.14
				c0-7.34,2.19-10.9,6.71-10.9c2.1,0,5.62,0.95,5.62,7.3v12.42h11.92V36.06c0-6.03,3.06-7.3,5.62-7.3c4.4,0,6.63,3.7,6.63,10.99
				C251.05,47.36,249.23,53.16,246.81,59.81z"/>
			<path class="st1" d="M313.07,62.32c-14.17,0-21.98-7.92-21.98-22.32V1.66h14.76V20.1c2.92-2.1,6.92-3.34,10.91-3.34
				c11.39,0,19.04,8.83,19.04,21.98C335.8,53.51,327.3,62.32,313.07,62.32z M292.08,2.66V40c0,13.75,7.45,21.32,20.98,21.32
				c13.61,0,21.74-8.44,21.74-22.57c0-12.55-7.25-20.98-18.04-20.98c-4.15,0-8.3,1.4-11.09,3.74l-0.82,0.69V2.66H292.08z
				 M313.15,52.25c-5.59,0-8.3-4.01-8.3-12.25v-9.79l0.17-0.15c2.44-2.17,5.37-3.31,8.47-3.31c5.49,0,8.05,3.81,8.05,12
				C321.54,47.71,318.71,52.25,313.15,52.25z M305.85,30.66V40c0,7.67,2.32,11.25,7.3,11.25c4.97,0,7.39-4.09,7.39-12.51
				c0-7.6-2.17-11-7.05-11C310.7,27.75,308.06,28.76,305.85,30.66z"/>
			<path class="st1" d="M402.09,60.81H387.6l0.27-0.68c3.56-8.93,5.92-17.78,5.92-31.95c0-14.83-3.03-16.87-6.3-16.87
				c-2.42,0-5.21,0.83-5.21,7.3v25.08H367.7V18.61c0-4.91-1.59-7.3-4.87-7.3c-4.9,0-6.63,4.41-6.63,16.87c0,14.56,2.4,23.3,6,31.94
				l0.29,0.69h-14.5l-0.13-0.3c-3.51-8-6.75-17.54-6.75-33.01c0-18.35,6.56-27.27,20.05-27.27c6.86,0,11.59,3.19,13.77,9.26
				c2.28-6.22,7.04-9.26,14.51-9.26c8.84,0,19.38,4.73,19.38,27.27c0,15.8-3.17,25.2-6.59,33.01L402.09,60.81z M389.07,59.81h12.36
				c3.33-7.65,6.37-16.89,6.37-32.31c0-17.18-6.36-26.27-18.38-26.27c-7.54,0-12.13,3.28-14.03,10.04l-0.49,1.74l-0.47-1.75
				c-1.8-6.66-6.27-10.04-13.28-10.04c-12.82,0-19.05,8.59-19.05,26.27c0,15.09,3.13,24.46,6.54,32.31h12.35
				c-3.05-7.44-5.79-16.52-5.79-31.64c0-13.19,2-17.87,7.63-17.87c3.9,0,5.87,2.79,5.87,8.3v24.08h12.59V18.61
				c0-5.59,2.03-8.3,6.21-8.3c5.18,0,7.3,5.18,7.3,17.87C394.79,42.14,392.52,51,389.07,59.81z"/>
			<path class="st1" d="M434.57,62.32c-12.9,0-21.56-7.59-21.56-18.88c0-3.54,0.89-7.02,2.58-10.06l0.19-0.35l12.9,3.7l-0.19,0.51
				c-0.68,1.79-1.06,3.9-1.06,5.95c0,2.98,0.93,7.97,7.14,7.97c4.46,0,6.72-3.16,6.72-9.4c0-6.33-2.83-9.82-7.97-9.82h-3.61
				l1.75-10.9h1.18c4.35,0,6.38-2.27,6.38-7.14c0-3.81-0.89-7.37-2.89-11.53l-0.34-0.72h13.73l0.15,0.22
				c2.79,4.03,4.2,8.07,4.2,12.03c0,6.15-3.22,10.38-9.59,12.57c7.78,1.93,12.36,7.8,12.36,16.04
				C456.64,54.55,447.98,62.32,434.57,62.32z M416.28,34.22c-1.48,2.81-2.26,5.99-2.26,9.23c0,10.69,8.26,17.88,20.56,17.88
				c12.8,0,21.06-7.38,21.06-18.8c0-8.5-4.92-14.13-13.5-15.45l-2.41-0.37l2.36-0.61c7.26-1.88,10.78-5.86,10.78-12.19
				c0-3.68-1.3-7.46-3.88-11.25h-11.62c1.83,4,2.65,7.5,2.65,11.25c0,5.4-2.48,8.14-7.38,8.14h-0.33l-1.43,8.9h2.43
				c5.7,0,8.97,3.94,8.97,10.82c0,8.6-4.2,10.4-7.72,10.4c-5.17,0-8.14-3.27-8.14-8.97c0-1.97,0.33-4.01,0.94-5.79L416.28,34.22z"/>
			<path class="st1" d="M482.15,62.32c-12.55,0-21.31-7.87-21.31-19.13c0-3.61,0.95-7.16,2.83-10.56l0.2-0.35l12.91,3.88l-0.21,0.51
				c-0.68,1.66-1.05,3.89-1.05,6.27c0,3.07,0.86,8.23,6.63,8.23c4.46,0,6.63-2.66,6.63-8.14V18.19c0-3.14-1.03-6.88-5.96-6.88
				c-3.68,0-5.88,2.1-5.88,5.63c0,1.64,0.27,3.23,0.81,4.88l0.18,0.55l-13.7,2.43l-0.16-0.35c-1.26-2.7-1.89-5.32-1.89-7.76
				c0-9.83,8.29-16.44,20.64-16.44c12.64,0,20.81,7.21,20.81,18.37v24.33C503.63,54.71,495.2,62.32,482.15,62.32z M464.36,33.47
				c-1.67,3.14-2.52,6.41-2.52,9.72c0,10.84,8.16,18.13,20.31,18.13c12.63,0,20.48-7.04,20.48-18.38V18.61
				c0-10.55-7.77-17.37-19.81-17.37c-11.75,0-19.64,6.21-19.64,15.44c0,2.2,0.55,4.55,1.64,6.99l11.81-2.1
				c-0.46-1.55-0.69-3.08-0.69-4.64c0-4.09,2.63-6.63,6.88-6.63c4.49,0,6.96,2.8,6.96,7.88v24.84c0,6.07-2.57,9.14-7.63,9.14
				c-4.85,0-7.63-3.36-7.63-9.23c0-2.28,0.33-4.43,0.93-6.14L464.36,33.47z"/>
			<path class="st1" d="M567.64,60.81h-13.95l0.25-0.67c2.5-6.84,4.42-12.69,4.42-20.39c0-6.72-1.84-9.99-5.63-9.99
				c-3.06,0-4.62,2.12-4.62,6.3v13.42h-13.92V36.06c0-4.12-1.6-6.3-4.62-6.3c-2.45,0-5.71,1.03-5.71,9.9c0,8.13,2,14.08,4.41,20.46
				l0.26,0.68h-13.96l-0.14-0.29c-2.48-5.26-5.33-12.91-5.33-25.47c0-16.16,4.48-27.6,26.35-30.87c8.21-1.25,14.04-2.36,17.75-3.99
				L553.63,0l4.86,9.62l-0.35,0.25c-3.91,2.76-10.7,4.67-19.13,5.38c-9.16,0.83-13.13,2.67-15.15,4.79
				c1.73-0.91,3.71-1.34,6.05-1.34c5.57,0,9.52,2.98,11.26,8.44c1.95-5.53,6.69-8.44,13.83-8.44c11.69,0,18.12,7.21,18.12,20.3
				c0,9.44-2.75,16.06-5.33,21.53L567.64,60.81z M555.12,59.81h11.89c2.6-5.54,5.1-11.74,5.1-20.81c0-12.45-6.08-19.3-17.12-19.3
				c-7.33,0-11.95,3.26-13.36,9.43l-0.5,2.2l-0.48-2.21c-1.31-6.08-5.13-9.42-10.75-9.42c-3.16,0-5.59,0.84-7.64,2.64l-1.88,1.65
				l1.1-2.25c2.18-4.46,7.07-6.56,17.44-7.49c7.88-0.66,14.5-2.46,18.28-4.95l-4.04-8c-3.81,1.58-9.58,2.66-17.56,3.88
				c-21.24,3.18-25.5,13.79-25.5,29.88c0,12.14,2.7,19.6,5.1,24.76h11.88c-2.33-6.23-4.22-12.14-4.22-20.14
				c0-7.34,2.19-10.9,6.71-10.9c2.1,0,5.62,0.95,5.62,7.3v12.42h11.92V36.06c0-6.03,3.06-7.3,5.62-7.3c4.4,0,6.63,3.7,6.63,10.99
				C559.35,47.36,557.53,53.16,555.12,59.81z"/>
			<path class="st1" d="M600.22,62.32c-13.76,0-22.65-8.36-22.65-21.31c0-4.69,1.23-9.11,3.76-13.51l0.21-0.36l12.72,4.42l-0.2,0.49
				c-1.1,2.7-1.72,5.96-1.72,8.96c0,4.63,1.37,10.16,7.89,10.16c5.01,0,7.55-3.25,7.55-9.65c0-7.28-3.32-11.87-6.83-16.74
				c-4.15-5.74-8.44-11.67-8.44-22.62v-0.5h15l0.01,0.49c0.15,6.83,3.6,11.74,7.24,16.94c4.15,5.92,8.45,12.05,8.45,21.59
				C623.21,53.82,614.18,62.32,600.22,62.32z M581.99,28.36c-2.3,4.13-3.42,8.27-3.42,12.65c0,12.53,8.3,20.31,21.65,20.31
				c13.56,0,21.99-7.91,21.99-20.64c0-9.22-4.2-15.22-8.27-21.01c-3.65-5.21-7.1-10.13-7.41-17h-13.03
				c0.13,10.3,4.25,16.01,8.24,21.53c3.61,5,7.02,9.72,7.02,17.32c0,6.97-2.96,10.65-8.55,10.65c-5.73,0-8.89-3.96-8.89-11.16
				c0-2.94,0.58-6.13,1.61-8.84L581.99,28.36z"/>
		</g>
	</g>
</g>
</svg>
