<?xml version="1.0" encoding="utf-8"?>
<!-- Generator: Adobe Illustrator 23.0.2, SVG Export Plug-In . SVG Version: 6.00 Build 0)  -->
<svg version="1.1" id="Layer_1" xmlns="http://www.w3.org/2000/svg" xmlns:xlink="http://www.w3.org/1999/xlink" x="0px" y="0px"
	 viewBox="0 0 31.5 37.82" style="enable-background:new 0 0 31.5 37.82;" xml:space="preserve">
<style type="text/css">
	.st0{fill:#E5541C;}
	.st1{fill:#4BC671;}
</style>
<g>
	<rect x="4.75" y="11.25" transform="matrix(0.7071 -0.7071 0.7071 0.7071 -11.1172 17.6526)" class="st0" width="22" height="22"/>
	<g>
		<path class="st1" d="M22.31,0.19c-1.67-0.44-3.52-0.02-4.83,1.29c-1.31,1.31-1.74,3.16-1.29,4.83c1.67,0.44,3.52,0.02,4.83-1.29
			C22.33,3.71,22.75,1.85,22.31,0.19z"/>
		<path class="st1" d="M9.19,0.19c-0.44,1.67-0.02,3.52,1.29,4.83c1.31,1.31,3.16,1.74,4.83,1.29c0.44-1.67,0.02-3.52-1.29-4.83
			C12.71,0.17,10.86-0.26,9.19,0.19z"/>
	</g>
</g>
</svg>
