<?xml version="1.0" encoding="utf-8"?>
<!-- Generator: Adobe Illustrator 23.0.2, SVG Export Plug-In . SVG Version: 6.00 Build 0)  -->
<svg version="1.1" id="Layer_1" xmlns="http://www.w3.org/2000/svg" xmlns:xlink="http://www.w3.org/1999/xlink" x="0px" y="0px"
	 viewBox="0 0 50.2 47.1" style="enable-background:new 0 0 50.2 47.1;" xml:space="preserve">
<style type="text/css">
	.st0{fill:#FFFFFF;}
</style>
<g>
	<path class="st0" d="M25.1,0.5c-12.7,0-23,10.3-23,23s10.3,23,23,23s23-10.3,23-23S37.8,0.5,25.1,0.5z M25.1,41.9
		C15,41.9,6.8,33.7,6.8,23.5S15,5.2,25.1,5.2s18.3,8.2,18.3,18.3S35.2,41.9,25.1,41.9z"/>
	<g>
		<path class="st0" d="M34.3,15.3c0,6.8-7.5,6.2-7.5,11.1v1.3h-5.5v-1.5c0-7.2,6.8-6.6,6.8-10.3c0-1.7-1.2-2.7-3.2-2.7
			c-1.3,0-2.6,0.4-3.8,1.4c-0.9,0.7-2.1,0.7-2.9,0l0,0c-1.3-1-1.2-2.9,0-3.8c2-1.5,4.3-2.3,7.3-2.3C31.3,8.4,34.3,11.7,34.3,15.3z
			 M27.7,35.1c0,2-1.6,3.6-3.6,3.6c-2,0-3.5-1.6-3.5-3.6c0-1.9,1.5-3.5,3.5-3.5C26.1,31.5,27.7,33.1,27.7,35.1z"/>
	</g>
</g>
</svg>
