<?xml version="1.0" encoding="utf-8"?>
<!-- Generator: Adobe Illustrator 23.0.2, SVG Export Plug-In . SVG Version: 6.00 Build 0)  -->
<svg version="1.1" id="Layer_1" xmlns="http://www.w3.org/2000/svg" xmlns:xlink="http://www.w3.org/1999/xlink" x="0px" y="0px"
	 viewBox="0 0 84.19 79" style="enable-background:new 0 0 84.19 79;" xml:space="preserve">
<style type="text/css">
	.st0{fill:#FFC627;}
	.st1{fill:#FFFFFF;}
	.st2{fill:#E5541C;}
</style>
<g>
	<path class="st0" d="M44.69,79H0V0h44.69c21.82,0,39.5,17.68,39.5,39.5v0C84.19,61.32,66.5,79,44.69,79z"/>
	<circle class="st1" cx="29.37" cy="23.3" r="9.9"/>
	<g>
		<circle class="st2" cx="29.37" cy="23.3" r="5.48"/>
	</g>
	<path class="st2" d="M57.69,46.86c-5.79,0-10.5-4.71-10.5-10.5c0-0.83,0.67-1.5,1.5-1.5s1.5,0.67,1.5,1.5c0,4.14,3.36,7.5,7.5,7.5
		s7.5-3.36,7.5-7.5c0-0.83,0.67-1.5,1.5-1.5s1.5,0.67,1.5,1.5C68.19,42.15,63.48,46.86,57.69,46.86z"/>
</g>
</svg>
