<?xml version="1.0" encoding="utf-8"?>
<!-- Generator: Adobe Illustrator 23.0.2, SVG Export Plug-In . SVG Version: 6.00 Build 0)  -->
<svg version="1.1" id="Layer_1" xmlns="http://www.w3.org/2000/svg" xmlns:xlink="http://www.w3.org/1999/xlink" x="0px" y="0px"
	 viewBox="0 0 22.9 28.5" style="enable-background:new 0 0 22.9 28.5;" xml:space="preserve">
<style type="text/css">
	.st0{fill:#FFFFFF;}
</style>
<path class="st0" d="M8.5,3.1l0,15l-3-3c-1.2-1.2-3.3-1.3-4.5,0c-1.2,1.2-1.3,3.3,0,4.5l8.1,8.1c0.6,0.6,1.6,1,2.4,0.8
	c0.3,0,0.6,0,0.8-0.1c0.1,0,0.2-0.1,0.2-0.1c0.1,0,0.2-0.1,0.4-0.1c0.1-0.1,0.2-0.1,0.3-0.1c0.1-0.1,0.2-0.1,0.3-0.1
	c0.1-0.1,0.4-0.2,0.5-0.4l8.1-8.1c1.2-1.2,1.3-3.3,0-4.5c-1.2-1.2-3.3-1.3-4.5,0l-2.7,2.7l0.1-14.6c0-1.7-1.4-3.1-3.2-3.2
	C9.9,0,8.5,1.4,8.5,3.1z"/>
</svg>
