<?xml version="1.0" encoding="utf-8"?>
<!-- Generator: Adobe Illustrator 23.0.2, SVG Export Plug-In . SVG Version: 6.00 Build 0)  -->
<svg version="1.1" id="Layer_1" xmlns="http://www.w3.org/2000/svg" xmlns:xlink="http://www.w3.org/1999/xlink" x="0px" y="0px"
	 viewBox="0 0 50.2 47.1" style="enable-background:new 0 0 50.2 47.1;" xml:space="preserve">
<style type="text/css">
	.st0{fill:#FFFFFF;}
</style>
<g>
	<path class="st0" d="M5.8,46.2l10.6-10.6v4.3c0,1.7,1.4,3.2,3.2,3.2c1.7,0,3.2-1.4,3.2-3.2V28.4c0-0.9-0.4-1.8-1.1-2.3
		c-0.2-0.2-0.4-0.4-0.6-0.5c-0.1-0.1-0.2-0.1-0.2-0.1c-0.1-0.1-0.2-0.1-0.3-0.2c-0.1,0-0.2-0.1-0.3-0.1c-0.1,0-0.2-0.1-0.3-0.1
		c-0.2,0-0.4-0.1-0.6-0.1H8c-1.7,0-3.2,1.4-3.2,3.2c0,1.7,1.4,3.2,3.2,3.2h3.8L1.4,41.7c-1.2,1.2-1.2,3.2,0,4.5
		C2.6,47.4,4.6,47.4,5.8,46.2z"/>
	<path class="st0" d="M46.6,0c-0.8,0-1.6,0.3-2.2,0.9L33.7,11.6V7.3c0-1.7-1.4-3.2-3.2-3.2s-3.2,1.4-3.2,3.2v11.4
		c0,0.9,0.4,1.8,1.1,2.3c0.2,0.2,0.4,0.4,0.6,0.5c0.1,0,0.2,0.1,0.2,0.1c0.1,0.1,0.2,0.1,0.3,0.2c0.1,0,0.2,0.1,0.3,0.1
		c0.1,0,0.2,0.1,0.3,0.1c0.2,0,0.4,0.1,0.6,0.1h11.4c1.7,0,3.2-1.4,3.2-3.2c0-1.7-1.4-3.2-3.2-3.2h-3.8L48.8,5.4
		c1.2-1.2,1.2-3.2,0-4.5C48.2,0.3,47.4,0,46.6,0z"/>
</g>
</svg>
