<?xml version="1.0" encoding="utf-8"?>
<!-- Generator: Adobe Illustrator 23.0.2, SVG Export Plug-In . SVG Version: 6.00 Build 0)  -->
<svg version="1.1" id="Layer_1" xmlns="http://www.w3.org/2000/svg" xmlns:xlink="http://www.w3.org/1999/xlink" x="0px" y="0px"
	 viewBox="0 0 28.6 22.9" style="enable-background:new 0 0 28.6 22.9;" xml:space="preserve">
<style type="text/css">
	.st0{fill:#FFFFFF;}
</style>
<path class="st0" d="M25.5,8.5l-15,0l3-3c1.2-1.2,1.3-3.3,0-4.5c-1.2-1.2-3.3-1.3-4.5,0L0.9,9.1c-0.6,0.6-1,1.6-0.8,2.4
	c0,0.3,0,0.6,0.1,0.8c0,0.1,0.1,0.2,0.1,0.2c0,0.1,0.1,0.2,0.1,0.4c0.1,0.1,0.1,0.2,0.1,0.3c0.1,0.1,0.1,0.2,0.1,0.3
	c0.1,0.1,0.2,0.4,0.4,0.5l8.1,8.1c1.2,1.2,3.3,1.3,4.5,0c1.2-1.2,1.3-3.3,0-4.5l-2.7-2.7l14.6,0.1c1.7,0,3.1-1.4,3.2-3.2
	C28.6,9.9,27.2,8.5,25.5,8.5z"/>
</svg>
