<?xml version="1.0" encoding="utf-8"?>
<!-- Generator: Adobe Illustrator 23.0.2, SVG Export Plug-In . SVG Version: 6.00 Build 0)  -->
<svg version="1.1" id="Layer_1" xmlns="http://www.w3.org/2000/svg" xmlns:xlink="http://www.w3.org/1999/xlink" x="0px" y="0px"
	 viewBox="0 0 28.6 22.9" style="enable-background:new 0 0 28.6 22.9;" xml:space="preserve">
<style type="text/css">
	.st0{fill:#FFFFFF;}
</style>
<path class="st0" d="M3.1,14.4h15l-3,3c-1.2,1.2-1.3,3.3,0,4.5c1.2,1.2,3.3,1.3,4.5,0l8.1-8.1c0.6-0.6,1-1.6,0.8-2.4
	c0-0.3,0-0.6-0.1-0.8c0-0.1-0.1-0.2-0.1-0.2c0-0.1-0.1-0.2-0.1-0.4c-0.1-0.1-0.1-0.2-0.1-0.3c-0.1-0.1-0.1-0.2-0.1-0.3
	c-0.1-0.1-0.2-0.4-0.4-0.5l-8.1-8.1c-1.2-1.2-3.3-1.3-4.5,0c-1.2,1.2-1.3,3.3,0,4.5l2.7,2.7L3.2,8.1c-1.7,0-3.1,1.4-3.2,3.2
	C0,12.9,1.4,14.4,3.1,14.4z"/>
</svg>
